<svg xmlns="http://www.w3.org/2000/svg" width="920" height="320" viewBox="0 0 920 320" role="img"><style>text{font-family:ui-sans-serif,system-ui,sans-serif;fill:#1f2937}.title{font-size:18px;font-weight:700}.subtitle,.axis,.tiny{font-size:12px;fill:#6b7280}.label{font-size:13px}.bar{fill:#0f766e}.box{fill:#d1fae5;stroke:#0f766e}.median,.axis-line{stroke:#111827;stroke-width:2}.line{fill:none;stroke:#0f766e;stroke-width:2.5}.dot{fill:#0f766e;opacity:.78}.empty{font-size:14px;fill:#6b7280}</style>
<text x="24" y="32" class="title">Cost / Query CDF</text><text x="24" y="54" class="subtitle">Cumulative fraction by query cost.</text>
<line x1="90" y1="250" x2="850" y2="250" class="axis-line"></line><line x1="90" y1="80" x2="90" y2="250" class="axis-line"></line><text x="390" y="295" class="axis">Cost (USD)</text><text x="24" y="74" class="axis">Cumulative fraction</text>
<path d="M90.0,250.0 L95.2,248.3 L98.3,246.6 L98.3,244.8 L100.9,243.1 L101.3,241.4 L101.7,239.7 L102.5,238.0 L103.5,236.3 L105.2,234.5 L107.8,232.8 L108.9,231.1 L115.1,229.4 L115.6,227.7 L116.0,226.0 L116.3,224.2 L116.5,222.5 L118.0,220.8 L118.0,219.1 L120.7,217.4 L121.3,215.7 L124.1,213.9 L124.1,212.2 L124.3,210.5 L127.2,208.8 L129.0,207.1 L129.5,205.4 L132.0,203.6 L134.5,201.9 L135.8,200.2 L137.6,198.5 L137.8,196.8 L137.8,195.1 L140.5,193.3 L141.2,191.6 L143.5,189.9 L144.2,188.2 L144.9,186.5 L145.9,184.7 L146.2,183.0 L147.1,181.3 L152.7,179.6 L153.9,177.9 L155.0,176.2 L156.8,174.4 L157.4,172.7 L157.5,171.0 L158.0,169.3 L158.0,167.6 L159.2,165.9 L159.6,164.1 L159.6,162.4 L161.9,160.7 L168.8,159.0 L172.1,157.3 L172.2,155.6 L172.9,153.8 L173.4,152.1 L175.6,150.4 L178.2,148.7 L178.4,147.0 L182.0,145.3 L182.6,143.5 L186.1,141.8 L188.0,140.1 L190.7,138.4 L191.0,136.7 L193.9,134.9 L202.8,133.2 L205.8,131.5 L206.5,129.8 L208.9,128.1 L209.1,126.4 L209.3,124.6 L212.3,122.9 L213.7,121.2 L216.4,119.5 L227.5,117.8 L228.1,116.1 L233.6,114.3 L236.0,112.6 L242.8,110.9 L245.4,109.2 L246.4,107.5 L253.7,105.8 L256.2,104.0 L257.8,102.3 L265.1,100.6 L269.5,98.9 L275.0,97.2 L278.3,95.5 L280.1,93.7 L300.2,92.0 L300.2,90.3 L330.8,88.6 L350.5,86.9 L365.4,85.2 L735.9,83.4 L805.4,81.7 L850.0,80.0" class="line"></path>
</svg>